# xmcd
#
# Track frame offsets:
#	150
#	11857
#	21999
#	34007
#	44796
#	61860
#	73722
#	86155
#	98602
#	108806
#
# Disc length: 1653 seconds
#
# Revision: 2
# Processed by: cddbd v1.4PL0 Copyright (c) Steve Scherf et al.
# Submitted via: EZCDDA 4.3.2
#
DISCID=8106730a
DTITLE=Rheal Leblanc - Je T'aime Quand Meme
DYEAR=1900
DGENRE=Country
TTITLE0=Je M'ennuie
TTITLE1=Cheveux Blanc
TTITLE2=La taverne A joe
TTITLE3=Seches Tes Yeux
TTITLE4=Terrible Accident
TTITLE5=Au Pied Du Quai
TTITLE6=Le malheur Est Tomber
TTITLE7=La peine D'un Enfant
TTITLE8=La Reine Acadienne
TTITLE9=Je T'aime Quand Meme
EXTD=
EXTT0=
EXTT1=
EXTT2=
EXTT3=
EXTT4=
EXTT5=
EXTT6=
EXTT7=
EXTT8=
EXTT9=
PLAYORDER=
